<svg width="20" height="20" viewBox="0 0 20 20" fill="none" xmlns="http://www.w3.org/2000/svg">
<path d="M9.99999 1.66699C11.0916 1.66708 12.0832 2.37541 12.7998 3.66699L18.1328 13.2666C18.8078 14.4832 18.8834 15.6668 18.3418 16.5918C17.8001 17.5168 16.733 18.0254 15.333 18.0254H4.66601C3.26629 18.0253 2.19983 17.5166 1.65819 16.5918C1.11653 15.6668 1.19123 14.4916 1.8662 13.2666L7.20018 3.66699C7.91685 2.37533 8.90832 1.66699 9.99999 1.66699ZM10.1582 13.3496C10.0582 13.3246 9.94132 13.3246 9.833 13.3496C9.78309 13.3579 9.73349 13.3755 9.68358 13.4004C9.63366 13.417 9.58311 13.4414 9.53319 13.4746C9.49153 13.5079 9.44986 13.5419 9.40819 13.5752C9.25823 13.7335 9.16601 13.9504 9.16601 14.167C9.1661 14.3836 9.25827 14.6005 9.40819 14.7588C9.44977 14.7921 9.49162 14.8251 9.53319 14.8584C9.58317 14.8917 9.63361 14.9169 9.68358 14.9336C9.73339 14.9584 9.78319 14.9751 9.833 14.9834C9.89133 14.9917 9.94999 15 9.99999 15C10.0499 15 10.1083 14.9917 10.1582 14.9834C10.2164 14.9751 10.2665 14.9585 10.3164 14.9336C10.3664 14.9169 10.4168 14.8917 10.4668 14.8584C10.5084 14.8251 10.5502 14.7921 10.5918 14.7588C10.7417 14.6005 10.8329 14.3836 10.833 14.167C10.833 13.9504 10.7416 13.7335 10.5918 13.5752C10.5501 13.5419 10.5084 13.5079 10.4668 13.4746C10.4168 13.4413 10.3664 13.4171 10.3164 13.4004C10.2664 13.3754 10.2165 13.3579 10.1582 13.3496ZM9.99999 6.875C9.65832 6.875 9.37499 7.15833 9.37499 7.5V11.667C9.37517 12.0085 9.65843 12.292 9.99999 12.292C10.3415 12.2919 10.6248 12.0084 10.625 11.667V7.5C10.625 7.1584 10.3416 6.87511 9.99999 6.875Z" fill="#13151A"/>
</svg>
