<svg width="20" height="20" viewBox="0 0 20 20" fill="none" xmlns="http://www.w3.org/2000/svg">
<path d="M9.59148 1.8916C10.1498 1.89162 10.9334 2.0831 11.2917 2.44141L12.3581 3.2666C12.7663 3.58319 13.0084 4.06649 13.0085 4.58301V13.0498C13.0085 13.3831 12.9076 13.7084 12.7243 13.9834L10.4499 17.3672C10.0914 17.9087 9.1993 18.2921 8.44109 18.0088C7.62451 17.7337 7.08349 16.8166 7.25847 16L7.69109 13.2754C7.72442 13.0254 7.65795 12.8 7.51629 12.625C7.37462 12.4667 7.16605 12.3672 6.94109 12.3672H3.51629C2.85804 12.3672 2.29101 12.1004 1.95769 11.6338C1.64107 11.1839 1.58346 10.6004 1.79168 10.0088L3.84148 3.7666C4.09988 2.73333 5.22486 1.8916 6.34148 1.8916H9.59148ZM16.5163 2.83301C17.8078 2.83301 18.3326 3.3333 18.3327 4.56641V12.9414C18.3327 14.1747 17.808 14.6748 16.5163 14.6748H15.6579C14.3664 14.6748 13.8415 14.175 13.8415 12.9502V4.56641C13.8416 3.33336 14.3665 2.83306 15.6579 2.83301H16.5163Z" fill="#13151A"/>
</svg>
