<svg width="20" height="20" viewBox="0 0 20 20" fill="none" xmlns="http://www.w3.org/2000/svg">
<path d="M19.9619 4.61816C19.9736 4.74983 20 4.86917 20 5V15C19.9986 16.1045 19.5592 17.1633 18.7783 17.9443C17.9972 18.7255 16.9377 19.1657 15.833 19.167H4.16699C3.06233 19.1657 2.00279 18.7255 1.22168 17.9443C0.440758 17.1633 0.00135831 16.1045 0 15V5C0 4.86917 0.0264193 4.74983 0.0380859 4.61816L7.05371 11.6328C7.8359 12.413 8.89521 12.8516 10 12.8516C11.1048 12.8516 12.1641 12.413 12.9463 11.6328L19.9619 4.61816ZM15.833 0.833008C16.547 0.834958 17.2489 1.02112 17.8701 1.37305C18.4913 1.72497 19.0112 2.23141 19.3799 2.84277L11.7686 10.4551C11.2989 10.9228 10.6628 11.1855 10 11.1855C9.33717 11.1855 8.70108 10.9228 8.23145 10.4551L0.620117 2.84277C0.988816 2.23143 1.50873 1.72497 2.12988 1.37305C2.75111 1.02112 3.45301 0.834958 4.16699 0.833008H15.833Z" fill="white"/>
</svg>
