<svg width="20" height="20" viewBox="0 0 20 20" fill="none" xmlns="http://www.w3.org/2000/svg">
<g clip-path="url(#clip0_2002_71)">
<path d="M9.99995 0C12.6512 0.00286757 15.1936 1.0569 17.0683 2.93164C18.9431 4.80638 19.9971 7.34872 20 10C20 11.9778 19.4132 13.9112 18.3144 15.5557C17.2156 17.2001 15.6543 18.4824 13.8271 19.2393C11.9998 19.9961 9.98859 20.1935 8.04878 19.8076C6.10909 19.4217 4.32711 18.4697 2.92866 17.0713C1.53021 15.6728 0.578223 13.8909 0.192332 11.9512C-0.19352 10.0114 0.00381537 8.00011 0.760692 6.17285C1.51756 4.34567 2.79987 2.78434 4.44429 1.68555C6.08878 0.586734 8.02214 8.95525e-07 9.99995 0ZM6.66694 12.5C6.44593 12.5 6.23338 12.5879 6.0771 12.7441C5.921 12.9003 5.83304 13.1122 5.83296 13.333C5.83296 13.554 5.92082 13.7666 6.0771 13.9229C6.23338 14.0791 6.44593 14.167 6.66694 14.167H13.333C13.554 14.167 13.7665 14.0791 13.9228 13.9229C14.0791 13.7666 14.1669 13.554 14.1669 13.333C14.1669 13.1122 14.0789 12.9003 13.9228 12.7441C13.7665 12.5879 13.554 12.5 13.333 12.5H6.66694ZM6.66694 6.66699C6.22491 6.66699 5.80079 6.84271 5.48823 7.15527C5.17585 7.46774 5.00004 7.89118 4.99995 8.33301C4.99995 9.16634 5.74611 9.16699 6.66694 9.16699C7.58763 9.16699 8.33296 9.16624 8.33296 8.33301C8.33287 7.8911 8.15716 7.46776 7.84468 7.15527C7.53219 6.84279 7.10885 6.66708 6.66694 6.66699ZM13.333 6.66699C12.891 6.66708 12.4677 6.84279 12.1552 7.15527C11.8427 7.46776 11.667 7.8911 11.6669 8.33301C11.6669 9.16624 12.4123 9.16699 13.333 9.16699C14.2538 9.16699 14.9999 9.16634 14.9999 8.33301C14.9999 7.89117 14.8241 7.46774 14.5117 7.15527C14.1991 6.84271 13.775 6.66699 13.333 6.66699Z" fill="white"/>
</g>
<defs>
<clipPath id="clip0_2002_71">
<rect width="20" height="20" fill="white"/>
</clipPath>
</defs>
</svg>
