<svg width="20" height="20" viewBox="0 0 20 20" fill="none" xmlns="http://www.w3.org/2000/svg">
<g clip-path="url(#clip0_2002_198)">
<path d="M4.16699 2.5C4.16973 4.79993 6.03311 6.66405 8.33301 6.66699H11.667C13.9669 6.66403 15.8302 4.79992 15.833 2.5V0.645508C16.0976 0.808945 16.3438 1.00156 16.5654 1.21973L18.7803 3.43457C19.5641 4.21414 20.0031 5.27535 20 6.38086V15.833C19.9973 18.133 18.133 19.9973 15.833 20H4.16699C1.86695 19.9973 0.00277344 18.133 0 15.833V4.16699C0.00277344 1.86695 1.86695 0.00277344 4.16699 0V2.5ZM10 8.33301C8.15906 8.33301 6.66699 9.82605 6.66699 11.667C6.66716 13.5078 8.15917 15 10 15C11.8408 15 13.3328 13.5078 13.333 11.667C13.333 9.82606 11.8409 8.33301 10 8.33301ZM10 10C10.9205 10 11.667 10.7465 11.667 11.667C11.6668 12.5873 10.9204 13.333 10 13.333C9.07962 13.333 8.33318 12.5873 8.33301 11.667C8.33301 10.7465 9.07951 10 10 10ZM13.6191 0C13.8026 0.00597727 13.9858 0.0241809 14.167 0.0537109V2.5C14.167 3.88058 13.0475 4.9998 11.667 5H8.33301C6.95244 4.99984 5.83301 3.88057 5.83301 2.5V0H13.6191Z" fill="white"/>
</g>
<defs>
<clipPath id="clip0_2002_198">
<rect width="20" height="20" fill="white"/>
</clipPath>
</defs>
</svg>
