<svg width="20" height="20" viewBox="0 0 20 20" fill="none" xmlns="http://www.w3.org/2000/svg">
<g clip-path="url(#clip0_2002_65)">
<path d="M9.99995 0C12.6512 0.00286757 15.1936 1.0569 17.0683 2.93164C18.9431 4.80638 19.9971 7.34872 20 10C20 11.9778 19.4132 13.9112 18.3144 15.5557C17.2156 17.2001 15.6543 18.4824 13.8271 19.2393C11.9998 19.9961 9.98859 20.1935 8.04878 19.8076C6.10909 19.4217 4.32711 18.4697 2.92866 17.0713C1.53021 15.6728 0.578223 13.8909 0.192332 11.9512C-0.19352 10.0114 0.00381537 8.00011 0.760692 6.17285C1.51756 4.34567 2.79987 2.78434 4.44429 1.68555C6.08878 0.586734 8.02214 8.95525e-07 9.99995 0ZM6.66694 11.667C6.53721 11.6669 6.40891 11.6968 6.29292 11.7549C6.1769 11.813 6.07561 11.898 5.998 12.002C5.92055 12.1059 5.86835 12.2269 5.84565 12.3545C5.82304 12.482 5.83027 12.6131 5.86714 12.7373C6.16551 13.6097 6.72065 14.3725 7.45893 14.9248C8.19714 15.4769 9.08483 15.7931 10.0058 15.833C10.9279 15.7966 11.8177 15.4815 12.5566 14.9287C13.2954 14.3759 13.8493 13.6115 14.1445 12.7373C14.1779 12.6129 14.1825 12.482 14.1582 12.3555C14.1338 12.2291 14.081 12.1098 14.0039 12.0068C13.9266 11.9037 13.8265 11.8197 13.7119 11.7607C13.5972 11.7018 13.4706 11.6698 13.3417 11.667H6.66694ZM6.66694 6.66699C6.22491 6.66699 5.80079 6.84271 5.48823 7.15527C5.17585 7.46774 5.00004 7.89118 4.99995 8.33301C4.99995 9.16634 5.74611 9.16699 6.66694 9.16699C7.58763 9.16699 8.33296 9.16624 8.33296 8.33301C8.33287 7.8911 8.15716 7.46776 7.84468 7.15527C7.53219 6.84279 7.10885 6.66708 6.66694 6.66699ZM13.333 6.66699C12.891 6.66708 12.4677 6.84279 12.1552 7.15527C11.8427 7.46776 11.667 7.8911 11.6669 8.33301C11.6669 9.16624 12.4123 9.16699 13.333 9.16699C14.2538 9.16699 14.9999 9.16634 14.9999 8.33301C14.9999 7.89117 14.8241 7.46774 14.5117 7.15527C14.1991 6.84271 13.775 6.66699 13.333 6.66699Z" fill="white"/>
</g>
<defs>
<clipPath id="clip0_2002_65">
<rect width="20" height="20" fill="white"/>
</clipPath>
</defs>
</svg>
