<svg width="20" height="20" viewBox="0 0 20 20" fill="none" xmlns="http://www.w3.org/2000/svg">
<g clip-path="url(#clip0_2002_658)">
<path d="M19.5449 5C18.5626 6.4327 17.2686 7.62443 15.7598 8.48535C14.2509 9.34628 12.5662 9.85394 10.833 9.9707V18.333H14.167C14.3878 18.3331 14.5997 18.421 14.7559 18.5771C14.9121 18.7334 15 18.946 15 19.167C14.9999 19.3879 14.912 19.5997 14.7559 19.7559C14.5997 19.912 14.3879 19.9999 14.167 20H5.83301C5.6121 19.9999 5.40036 19.9121 5.24414 19.7559C5.08794 19.5997 5.00009 19.3879 5 19.167C5 18.946 5.08786 18.7334 5.24414 18.5771C5.40034 18.4211 5.61218 18.3331 5.83301 18.333H9.16699V9.9707C7.43224 9.85457 5.74588 9.34723 4.23535 8.48633C2.72488 7.62545 1.4293 6.43332 0.445312 5H19.5449ZM16.667 0C17.5514 0.000761302 18.3993 0.351947 19.0254 0.976562C19.6515 1.60125 20.0051 2.44858 20.0078 3.33301H-0.0078125C-0.00508163 2.44858 0.348516 1.60125 0.974609 0.976562C1.6007 0.351958 2.44863 0.000725211 3.33301 0H16.667Z" fill="white"/>
</g>
<defs>
<clipPath id="clip0_2002_658">
<rect width="20" height="20" fill="white"/>
</clipPath>
</defs>
</svg>
