<svg width="477" height="369" viewBox="0 0 477 369" fill="none" xmlns="http://www.w3.org/2000/svg">
<g clip-path="url(#clip0_17_703)">
<mask id="mask0_17_703" style="mask-type:luminance" maskUnits="userSpaceOnUse" x="-46" y="0" width="569" height="370">
<path d="M522.368 0H-45.2253V369.125H522.368V0Z" fill="white"/>
</mask>
<g mask="url(#mask0_17_703)">
<path d="M354.504 68.252C378.1 66.627 407.134 65.3694 429.636 66.7757L431.792 66.9197L432.028 66.9463C433.191 67.1263 434.136 68.0038 434.393 69.1691L453.776 157.31C453.975 158.214 453.726 159.158 453.109 159.847C452.491 160.536 451.579 160.885 450.66 160.785C423.079 157.782 390.074 159.447 366.835 160.452C365.25 160.52 363.91 159.29 363.842 157.704C363.773 156.118 365.003 154.778 366.588 154.709C388.604 153.757 420.07 152.167 447.313 154.672L429.244 72.5105C407.155 71.1327 378.453 72.3647 354.898 73.9869C342.758 74.8229 332.023 75.7598 324.324 76.4877C320.476 76.8516 317.386 77.1627 315.261 77.3832C315.196 77.3899 315.132 77.3966 315.069 77.4031L330.874 160.207C331.172 161.766 330.149 163.271 328.591 163.569C327.032 163.866 325.528 162.844 325.23 161.285L308.841 75.415C308.691 74.628 308.875 73.8135 309.351 73.1688C309.826 72.5243 310.549 72.1073 311.345 72.0187L311.662 74.8757C311.345 72.0191 311.346 72.0187 311.346 72.0187C311.347 72.0186 311.348 72.0188 311.349 72.0187C311.351 72.0184 311.355 72.0175 311.36 72.017C311.369 72.016 311.384 72.0149 311.402 72.0128C311.439 72.0088 311.494 72.0024 311.566 71.9945C311.71 71.9787 311.925 71.9557 312.206 71.9255C312.769 71.8649 313.598 71.7768 314.668 71.6658C316.809 71.4438 319.916 71.1302 323.784 70.7645C331.519 70.0332 342.304 69.0922 354.504 68.252Z" fill="#13151A"/>
<path d="M230.062 168.996C230.997 168.669 232.035 168.846 232.809 169.466C245.196 179.403 256.989 180.431 266.3 177.159C280.241 172.259 295.769 172.684 306.719 176.719H306.721C318.16 180.942 326.665 187.379 332.453 195.866C338.227 204.33 341.157 214.628 341.813 226.364V226.365C342.374 236.438 340.225 248.186 337.013 260.311C333.793 272.462 329.425 285.268 325.418 297.44L325.368 297.58C324.82 298.998 323.25 299.752 321.79 299.271C320.283 298.775 319.464 297.15 319.96 295.642L323.016 286.394C326.077 277.116 329.086 267.794 331.459 258.838C334.63 246.871 336.586 235.832 336.077 226.686L336.013 225.661C335.291 215.129 332.589 206.262 327.708 199.106C322.685 191.742 315.215 185.984 304.731 182.113V182.112C295.093 178.561 280.944 178.105 268.205 182.582C257.941 186.19 245.644 185.259 233.195 176.883C232.923 181.766 233.824 187.008 235.841 191.732C238.499 197.958 242.966 203.009 248.865 205.293C250.345 205.866 251.08 207.53 250.507 209.01C249.935 210.49 248.271 211.226 246.792 210.654C239.095 207.674 233.657 201.251 230.557 193.99C227.46 186.737 226.568 178.372 228.209 171.078L228.255 170.899C228.515 170.014 229.185 169.303 230.062 168.996Z" fill="#13151A"/>
<path d="M254.971 195.44C256.235 194.48 258.037 194.728 258.996 195.993C259.955 197.258 259.707 199.061 258.443 200.02C249.124 207.092 244.759 219.351 245.134 235.211L245.155 235.968V235.97C245.571 248.787 251.157 261.997 259.602 276.337L260.428 277.729L260.429 277.73C270.602 294.739 280.453 309.162 293.241 331.608C294.109 330.33 295.16 328.792 296.342 327.084C299.726 322.198 304.197 315.89 308.516 310.26C309.482 309.001 311.285 308.764 312.544 309.73C313.802 310.697 314.04 312.501 313.074 313.761C308.837 319.283 304.426 325.504 301.066 330.358C299.387 332.782 297.975 334.859 296.983 336.329C296.487 337.064 296.096 337.646 295.83 338.045C295.697 338.244 295.595 338.398 295.526 338.501C295.492 338.552 295.466 338.592 295.449 338.617C295.441 338.63 295.434 338.639 295.43 338.646C295.428 338.649 295.427 338.652 295.426 338.653L295.424 338.655C294.871 339.49 293.924 339.977 292.924 339.94C291.923 339.903 291.015 339.347 290.525 338.474C276.611 313.676 266.518 299.107 255.498 280.681V280.681C246.465 265.589 239.891 250.897 239.413 236.158L239.39 235.354C238.992 218.508 243.603 204.067 254.971 195.44Z" fill="#13151A"/>
<path d="M276.572 214.468C278.148 214.284 279.574 215.412 279.758 216.989C279.943 218.565 278.815 219.993 277.239 220.177C269.729 221.056 264.458 225.79 263.495 231.37L263.494 231.375C262.856 235.026 264.038 239.425 267.525 242.665L267.532 242.672C269.235 244.265 271.595 245.492 274.007 246.062C276.453 246.641 278.603 246.471 280.054 245.742C281.472 245.03 283.199 245.602 283.911 247.021C284.623 248.44 284.05 250.167 282.632 250.879C279.591 252.407 275.953 252.43 272.685 251.657C269.386 250.876 266.108 249.207 263.614 246.877C258.678 242.29 256.867 235.923 257.834 230.386C259.331 221.728 267.161 215.569 276.572 214.468Z" fill="#13151A"/>
<path d="M294.287 247.631C296.415 243.336 300.665 241.392 304.588 242.636C308.554 243.894 310.95 247.979 310.44 253.134C309.839 259.228 306.199 263.777 301.668 266.454C297.186 269.101 291.625 270.054 286.725 268.851V268.85C282.313 267.772 279.263 264.601 279.369 260.695C279.477 256.707 282.805 253.835 287.283 253.321L287.289 253.32C290.639 252.943 292.474 251.061 293.988 248.213L294.287 247.631ZM302.852 248.116C302.006 247.847 300.487 248.06 299.434 250.186L299.432 250.188C297.478 254.123 294.329 258.313 287.931 259.033L287.931 259.032C285.423 259.321 285.121 260.527 285.112 260.85C285.102 261.241 285.424 262.537 287.849 263.205L288.09 263.267L288.094 263.268C291.415 264.083 295.446 263.454 298.747 261.504C301.999 259.582 304.333 256.518 304.722 252.569V252.567C305.028 249.468 303.655 248.371 302.852 248.116Z" fill="#13151A"/>
<path d="M295.604 217.028C296.223 215.567 297.909 214.884 299.37 215.503C300.831 216.122 301.514 217.809 300.895 219.27C300.894 219.273 300.893 219.276 300.891 219.28C300.882 219.304 300.865 219.348 300.842 219.409C300.797 219.53 300.731 219.718 300.658 219.955C300.511 220.439 300.352 221.079 300.277 221.753C300.101 223.331 298.681 224.468 297.104 224.292C295.527 224.116 294.391 222.695 294.567 221.117C294.693 219.987 294.947 218.985 295.163 218.277C295.273 217.918 295.376 217.622 295.455 217.41C295.494 217.303 295.528 217.216 295.553 217.152C295.566 217.12 295.577 217.094 295.586 217.073C295.59 217.063 295.594 217.054 295.597 217.047C295.598 217.043 295.6 217.04 295.601 217.037C295.601 217.035 295.602 217.034 295.603 217.033L295.603 217.03L295.604 217.029C295.61 217.031 295.724 217.079 298.249 218.149C298.413 218.219 298.567 218.284 298.711 218.345L295.604 217.028Z" fill="#13151A"/>
<path d="M255.096 212.876C255.921 211.52 257.689 211.091 259.044 211.916C260.397 212.741 260.827 214.507 260.005 215.862C260.005 215.862 260.005 215.863 260.004 215.864C260.001 215.87 259.993 215.883 259.983 215.901C259.962 215.937 259.927 215.997 259.884 216.076C259.796 216.235 259.673 216.467 259.542 216.744C259.263 217.332 259.015 217.978 258.914 218.505C258.616 220.064 257.111 221.086 255.553 220.788C253.994 220.489 252.973 218.984 253.271 217.425C253.505 216.202 253.985 215.051 254.351 214.28C254.542 213.877 254.721 213.539 254.854 213.298C254.921 213.177 254.977 213.079 255.019 213.007C255.039 212.972 255.056 212.943 255.069 212.921C255.076 212.91 255.081 212.9 255.086 212.892C255.088 212.889 255.09 212.886 255.092 212.883C255.093 212.882 255.094 212.88 255.094 212.879L255.095 212.877V212.877C255.095 212.876 255.1 212.879 256.88 213.963L255.096 212.876Z" fill="#13151A"/>
<path d="M327.796 339.748C329.326 339.605 330.689 340.691 330.906 342.196L330.924 342.343L342.474 466.174C342.621 467.754 341.46 469.155 339.881 469.302C338.301 469.45 336.9 468.288 336.753 466.707L325.202 342.877L325.192 342.73C325.128 341.21 326.265 339.891 327.796 339.748Z" fill="#13151A"/>
<path d="M246.078 466.679C245.946 468.261 244.558 469.436 242.977 469.304C241.396 469.173 240.22 467.784 240.352 466.202L246.078 466.679ZM250.646 342.372C250.778 340.79 252.166 339.614 253.747 339.745C255.329 339.877 256.504 341.266 256.373 342.848L246.078 466.679L240.352 466.202L250.646 342.372Z" fill="#13151A"/>
<path d="M110.581 282.414C110.582 282.418 110.585 282.424 110.587 282.432C110.592 282.449 110.599 282.474 110.609 282.508C110.628 282.575 110.658 282.676 110.697 282.809C110.775 283.076 110.893 283.475 111.048 283.994C111.358 285.034 111.817 286.562 112.413 288.508C113.604 292.399 115.343 297.961 117.525 304.638C121.892 317.996 128.032 335.79 135.134 353.57C142.247 371.376 150.279 389.05 158.411 402.23C162.482 408.828 166.504 414.175 170.358 417.839C174.269 421.555 177.634 423.187 180.424 423.187C187.462 423.187 195.219 420.315 203.062 415.71C210.868 411.128 218.514 404.976 225.271 398.756C232.019 392.545 237.818 386.324 241.933 381.652C243.989 379.318 245.62 377.375 246.735 376.02C247.292 375.342 247.72 374.812 248.007 374.453C248.15 374.273 248.258 374.136 248.329 374.046C248.365 374.001 248.391 373.967 248.408 373.945C248.417 373.934 248.423 373.926 248.427 373.921C248.429 373.918 248.43 373.917 248.431 373.916L248.432 373.915C248.432 373.915 248.431 373.916 250.698 375.681C252.965 377.446 252.965 377.447 252.964 377.448C252.964 377.448 252.963 377.449 252.963 377.45C252.961 377.452 252.959 377.455 252.956 377.459C252.95 377.466 252.942 377.476 252.932 377.489C252.911 377.516 252.88 377.554 252.841 377.604C252.762 377.704 252.646 377.851 252.495 378.04C252.192 378.419 251.748 378.972 251.172 379.671C250.022 381.071 248.348 383.064 246.244 385.453C242.039 390.227 236.098 396.602 229.162 402.986C222.236 409.361 214.254 415.804 205.97 420.668C197.723 425.51 188.925 428.935 180.424 428.935C175.443 428.935 170.711 426.102 166.402 422.007C162.037 417.858 157.715 412.045 153.522 405.251C145.128 391.646 136.951 373.608 129.799 355.703C122.636 337.77 116.454 319.852 112.064 306.425C109.869 299.71 108.12 294.112 106.92 290.191C106.319 288.231 105.856 286.689 105.542 285.636C105.385 285.11 105.266 284.705 105.185 284.432C105.145 284.296 105.115 284.192 105.095 284.122C105.084 284.087 105.077 284.06 105.071 284.042C105.069 284.033 105.066 284.027 105.065 284.022C105.064 284.019 105.063 284.017 105.063 284.016C105.063 284.015 105.086 284.007 107.821 283.211C110.58 282.409 110.58 282.409 110.58 282.41C110.581 282.411 110.581 282.412 110.581 282.414ZM248.432 373.915C249.406 372.663 251.212 372.437 252.463 373.412C253.715 374.387 253.94 376.193 252.966 377.446L248.432 373.915ZM107.019 280.452C108.543 280.009 110.137 280.885 110.58 282.409L105.063 284.014C104.62 282.489 105.496 280.895 107.019 280.452Z" fill="#13151A"/>
<path d="M142.353 195.851C145.296 195.173 148.522 195.501 151.329 197.192C154.075 198.847 156.171 201.652 157.258 205.496L157.359 205.871L157.36 205.874C158.866 211.659 162.31 225.968 165.368 238.792C166.899 245.213 168.336 251.274 169.391 255.73C169.918 257.957 170.35 259.784 170.65 261.053C170.8 261.688 170.917 262.185 170.996 262.522C171.036 262.69 171.066 262.818 171.087 262.905C171.097 262.948 171.105 262.981 171.11 263.003C171.113 263.014 171.115 263.023 171.116 263.028C171.117 263.031 171.117 263.034 171.118 263.035V263.037L171.148 263.181C171.422 264.677 170.477 266.141 168.981 266.494C167.437 266.858 165.889 265.901 165.525 264.357V264.354C165.525 264.353 165.524 264.351 165.524 264.348C165.522 264.343 165.52 264.334 165.518 264.323C165.513 264.301 165.505 264.268 165.494 264.225C165.474 264.139 165.443 264.01 165.404 263.842C165.324 263.506 165.208 263.01 165.058 262.376C164.758 261.107 164.327 259.281 163.8 257.055C162.746 252.601 161.309 246.543 159.779 240.126C156.715 227.277 153.288 213.038 151.8 207.324C151.063 204.502 149.721 202.933 148.366 202.116C146.984 201.284 145.313 201.068 143.642 201.453C140.255 202.234 137.32 205.347 137.659 209.769L137.737 210.707C138.608 220.531 141.489 234.304 144.233 245.887C145.642 251.836 147.003 257.158 148.012 260.993C148.516 262.91 148.933 264.454 149.222 265.518C149.367 266.049 149.48 266.46 149.557 266.738C149.595 266.877 149.624 266.983 149.644 267.054C149.654 267.089 149.662 267.115 149.667 267.133C149.669 267.141 149.67 267.148 149.672 267.152C149.672 267.154 149.673 267.156 149.673 267.157L149.71 267.301C150.045 268.784 149.161 270.286 147.681 270.701C146.153 271.128 144.568 270.236 144.14 268.707L146.907 267.933C144.189 268.693 144.141 268.708 144.14 268.707L144.139 268.705C144.139 268.704 144.139 268.701 144.138 268.699C144.137 268.694 144.134 268.687 144.132 268.677C144.126 268.659 144.118 268.63 144.108 268.593C144.088 268.52 144.058 268.411 144.018 268.27C143.94 267.985 143.825 267.567 143.678 267.028C143.385 265.95 142.965 264.391 142.456 262.457C141.439 258.589 140.065 253.219 138.642 247.213C135.809 235.258 132.732 220.577 131.93 210.212C131.348 202.64 136.514 197.197 142.353 195.851Z" fill="#13151A"/>
<path d="M128.836 259.247C130.388 258.915 131.914 259.904 132.246 261.456C133.753 268.506 137.048 276.491 140.035 282.812C141.518 285.95 142.904 288.636 143.919 290.535C144.426 291.484 144.84 292.234 145.125 292.745C145.268 293.001 145.378 293.197 145.452 293.327L145.555 293.508C145.557 293.511 145.558 293.514 145.559 293.515L145.56 293.516C146.354 294.89 145.884 296.649 144.51 297.443C143.137 298.237 141.38 297.767 140.586 296.393L142.491 295.291C140.585 296.393 140.585 296.392 140.585 296.392L140.584 296.391C140.584 296.39 140.583 296.389 140.582 296.387C140.581 296.384 140.578 296.38 140.575 296.375C140.569 296.365 140.561 296.35 140.55 296.331C140.528 296.294 140.497 296.239 140.457 296.167C140.376 296.025 140.258 295.816 140.107 295.547C139.807 295.008 139.377 294.227 138.852 293.245C137.803 291.281 136.372 288.51 134.84 285.269C131.798 278.83 128.276 270.366 126.628 262.658C126.296 261.106 127.285 259.579 128.836 259.247Z" fill="#13151A"/>
<path d="M116.751 267.043C118.296 266.68 119.842 267.639 120.205 269.184C121.713 275.6 124.522 282.609 126.999 288.082C128.23 290.803 129.365 293.114 130.191 294.741C130.604 295.555 130.939 296.196 131.169 296.632C131.284 296.85 131.374 297.016 131.433 297.127C131.463 297.182 131.485 297.223 131.5 297.25C131.507 297.263 131.512 297.274 131.515 297.28C131.517 297.282 131.518 297.284 131.519 297.285L131.52 297.287C132.28 298.68 131.769 300.425 130.377 301.187C128.985 301.949 127.239 301.438 126.478 300.045L130.035 298.099C129.748 298.255 129.406 298.442 128.998 298.665C126.54 300.01 126.48 300.044 126.478 300.044L126.477 300.043C126.477 300.043 126.476 300.041 126.475 300.04C126.474 300.038 126.472 300.034 126.47 300.029C126.465 300.02 126.458 300.008 126.45 299.992C126.432 299.959 126.406 299.912 126.373 299.851C126.307 299.729 126.212 299.55 126.09 299.319C125.846 298.858 125.496 298.187 125.068 297.343C124.212 295.655 123.038 293.267 121.765 290.453C119.232 284.857 116.246 277.452 114.612 270.499C114.249 268.954 115.207 267.407 116.751 267.043Z" fill="#13151A"/>
<path d="M178.806 272.774C182.49 272.18 187.451 272.178 192.039 273.755C196.715 275.363 201.121 278.676 203.074 284.655C204.99 290.517 204.59 295.614 202.745 299.906C200.93 304.128 197.814 307.353 194.638 309.745C191.455 312.142 188.078 313.803 185.531 314.859C184.886 315.127 184.289 315.356 183.756 315.552L197.615 373.164L264.549 291.737C265.557 290.512 267.367 290.335 268.593 291.343C269.818 292.351 269.995 294.163 268.987 295.389L198.39 381.272C197.698 382.114 196.59 382.491 195.528 382.247C194.466 382.003 193.634 381.178 193.379 380.118L177.551 314.324C177.186 312.809 178.095 311.279 179.599 310.875V310.876L179.601 310.875H179.6L179.603 310.874H179.605C179.612 310.872 179.625 310.868 179.644 310.863C179.683 310.852 179.745 310.834 179.829 310.809C179.998 310.759 180.256 310.681 180.587 310.572C181.25 310.354 182.203 310.017 183.331 309.549C185.603 308.606 188.511 307.165 191.183 305.153C193.861 303.136 196.173 300.643 197.466 297.635C198.73 294.695 199.119 291.046 197.614 286.443L197.613 286.442C196.342 282.551 193.556 280.355 190.171 279.192C186.699 277.998 182.733 277.963 179.719 278.449H179.717C176.849 278.91 174.281 279.255 171.85 279.584C169.411 279.913 167.118 280.224 164.737 280.622C160.365 281.357 158.89 284.44 159.328 287.05C159.758 289.613 162.295 292.766 168.416 292.586H168.418C173.561 292.438 177.588 291.472 182.779 289.626C184.274 289.095 185.916 289.877 186.447 291.372C186.978 292.868 186.198 294.511 184.703 295.043C179.146 297.019 174.506 298.161 168.584 298.332L168.585 298.333C160.121 298.582 154.649 293.887 153.662 288.002C152.682 282.165 156.381 276.198 163.786 274.954H163.787C166.272 274.538 168.651 274.215 171.082 273.887C173.521 273.558 176.02 273.221 178.806 272.774V272.774Z" fill="#13151A"/>
<path d="M345.306 136.079C350.143 134.287 355.982 136.053 359.315 141.288L360.015 142.409C363.539 148.163 367.365 156.01 370.342 162.487C371.939 165.962 373.309 169.081 374.28 171.331C374.766 172.456 375.152 173.366 375.417 173.995C375.55 174.309 375.653 174.554 375.723 174.72C375.757 174.804 375.784 174.868 375.802 174.911C375.811 174.932 375.818 174.949 375.822 174.96C375.825 174.966 375.826 174.97 375.827 174.973C375.828 174.975 375.829 174.976 375.829 174.977L375.83 174.978L370.521 177.178V177.177C370.521 177.177 370.521 177.176 370.52 177.175C370.519 177.172 370.517 177.169 370.515 177.164C370.511 177.154 370.505 177.139 370.497 177.119C370.48 177.078 370.455 177.017 370.421 176.937C370.354 176.776 370.254 176.538 370.124 176.23C369.865 175.614 369.484 174.72 369.006 173.61C368.048 171.39 366.695 168.314 365.121 164.889C361.953 157.997 357.952 149.842 354.47 144.378L354.47 144.377C352.523 141.319 349.485 140.661 347.302 141.47C345.362 142.188 343.373 144.381 344.034 148.841L344.107 149.279L344.108 149.282C346.177 160.758 349.993 173.493 356.236 183.919C362.374 194.17 370.69 201.933 381.795 204.416L382.326 204.531L382.521 204.578C383.487 204.849 384.248 205.609 384.515 206.587L405.129 282.026C405.489 283.344 404.872 284.734 403.653 285.35L402.358 282.784C403.63 285.305 403.652 285.35 403.651 285.351C403.651 285.351 403.65 285.352 403.649 285.352C403.646 285.354 403.643 285.354 403.64 285.356L403.529 285.412C403.454 285.448 403.347 285.501 403.208 285.568C402.929 285.702 402.523 285.893 401.993 286.134C400.934 286.615 399.384 287.292 397.386 288.09C393.391 289.685 387.602 291.766 380.373 293.735C366.149 297.61 346.297 301.066 323.54 299.5L322.454 299.422L322.307 299.407C320.799 299.216 319.69 297.873 319.806 296.339C319.922 294.806 321.22 293.645 322.739 293.682L322.887 293.69L323.935 293.765C345.898 295.276 365.091 291.94 378.864 288.189C385.855 286.284 391.437 284.276 395.256 282.751C396.772 282.146 398.009 281.616 398.946 281.201L379.424 209.758C366.848 206.56 357.745 197.625 351.307 186.873C344.583 175.645 340.593 162.174 338.453 150.302V150.301C337.176 143.251 340.288 137.938 345.306 136.079ZM375.83 174.978C376.437 176.445 375.741 178.126 374.275 178.733C372.809 179.341 371.128 178.644 370.521 177.178L375.83 174.978Z" fill="#13151A"/>
<path d="M425.854 155.13C427.397 154.763 428.946 155.717 429.313 157.261C440.166 202.886 447.061 237.625 449.709 262.886C451.032 275.514 451.307 285.889 450.446 294.129C449.589 302.321 447.578 308.735 444.033 313.122H444.032C440.634 317.327 435.176 321.241 428.24 324.786C421.263 328.351 412.597 331.639 402.583 334.504C382.554 340.233 356.927 344.325 328.179 345.481C326.593 345.545 325.256 344.311 325.192 342.725C325.129 341.139 326.362 339.801 327.947 339.737C356.319 338.596 381.484 334.56 401.004 328.977C410.765 326.185 419.064 323.02 425.626 319.667C432.229 316.293 436.887 312.823 439.565 309.509C442.095 306.376 443.923 301.257 444.731 293.531C445.534 285.853 445.297 275.922 443.994 263.485C441.388 238.615 434.568 204.18 423.724 158.592C423.357 157.048 424.31 155.498 425.854 155.13Z" fill="#13151A"/>
<path d="M357.33 113.822V113.823H357.331C357.331 113.823 357.331 113.823 357.332 113.822C356.006 112.951 355.636 111.171 356.506 109.844C357.376 108.517 359.157 108.146 360.484 109.016L359.065 111.18C360.484 109.017 360.484 109.018 360.485 109.018L360.487 109.019C360.488 109.02 360.489 109.021 360.491 109.022C360.494 109.024 360.499 109.027 360.504 109.03C360.513 109.036 360.525 109.044 360.539 109.054C360.569 109.073 360.609 109.1 360.658 109.134C360.758 109.202 360.897 109.3 361.073 109.426C361.425 109.678 361.923 110.046 362.533 110.527C363.752 111.489 365.427 112.91 367.292 114.775C369.857 117.339 372.813 120.772 375.438 125.034C376.451 122.231 377.848 118.737 379.681 114.945C384.113 105.777 391.223 94.5724 401.816 87.3296C403.126 86.4341 404.913 86.77 405.809 88.0803C406.704 89.3909 406.368 91.1793 405.058 92.075C395.666 98.4961 389.101 108.663 384.853 117.449C382.745 121.811 381.242 125.76 380.268 128.615C379.781 130.041 379.429 131.19 379.199 131.975C379.084 132.367 379 132.669 378.946 132.869C378.919 132.968 378.898 133.043 378.886 133.09C378.88 133.114 378.876 133.131 378.874 133.141C378.872 133.145 378.871 133.147 378.87 133.149C378.569 134.34 377.544 135.208 376.321 135.308C375.097 135.408 373.945 134.719 373.453 133.594C370.657 127.184 366.609 122.217 363.231 118.841C361.547 117.158 360.045 115.885 358.975 115.04C358.44 114.618 358.014 114.304 357.729 114.101C357.587 113.999 357.481 113.925 357.413 113.878C357.38 113.855 357.355 113.839 357.342 113.83C357.336 113.826 357.332 113.823 357.33 113.822Z" fill="#13151A"/>
<path d="M318.736 109.82C320.32 109.738 321.671 110.957 321.753 112.542C321.835 114.127 320.616 115.479 319.032 115.56C305.348 116.267 291.651 118.185 281.355 119.933C276.212 120.806 271.929 121.635 268.935 122.244C267.439 122.549 266.266 122.798 265.468 122.971C265.07 123.058 264.765 123.126 264.562 123.171C264.46 123.194 264.384 123.211 264.333 123.223C264.308 123.228 264.289 123.232 264.276 123.235C264.27 123.237 264.266 123.237 264.263 123.238C264.262 123.238 264.261 123.238 264.261 123.239L264.115 123.269C262.618 123.532 261.161 122.577 260.819 121.078C260.465 119.531 261.432 117.989 262.978 117.635L263.537 120.076C262.994 117.704 262.979 117.637 262.979 117.635H262.98C262.982 117.635 262.983 117.634 262.985 117.634C262.989 117.633 262.995 117.632 263.002 117.63C263.017 117.627 263.038 117.622 263.066 117.615C263.122 117.603 263.204 117.584 263.311 117.56C263.525 117.513 263.84 117.443 264.25 117.354C265.07 117.176 266.268 116.921 267.79 116.611C270.835 115.991 275.18 115.151 280.394 114.266C290.811 112.497 304.747 110.542 318.736 109.82Z" fill="#13151A"/>
<path d="M270.161 4.05263C287.557 2.9133 309.593 2.87009 327.895 7.37403L328.764 7.59207L328.978 7.65532C330.028 8.01259 330.787 8.94928 330.908 10.0663V10.0704C330.909 10.0733 330.909 10.0779 330.91 10.0837C330.911 10.0955 330.913 10.1135 330.916 10.137C330.921 10.184 330.929 10.2544 330.939 10.3476C330.959 10.5343 330.989 10.8133 331.03 11.1806C331.11 11.9153 331.23 13.0048 331.387 14.4221C331.7 17.2572 332.162 21.405 332.756 26.6541C333.646 34.5279 334.833 44.8794 336.258 56.9952L337.761 69.6732L337.775 69.8205C337.879 71.3375 336.776 72.6856 335.249 72.8681C333.723 73.0506 332.333 72.0003 332.077 70.5013L332.056 70.3548L330.552 57.6676C329.126 45.542 327.938 35.1819 327.047 27.3007C326.453 22.0467 325.99 17.894 325.676 15.0546C325.573 14.123 325.486 13.3325 325.416 12.6911C308.202 8.66835 287.409 8.68322 270.536 9.7883C261.818 10.3593 254.213 11.2167 248.791 11.9304C246.327 12.2547 244.316 12.5492 242.858 12.7735C243.027 14.2007 243.255 16.1561 243.525 18.5782C244.135 24.0382 244.964 31.8706 245.849 41.3694C247.619 60.3628 249.609 86.0389 250.488 112.741C250.54 114.328 249.297 115.656 247.711 115.708C246.125 115.761 244.798 114.517 244.746 112.93C243.872 86.3799 241.892 60.8258 240.129 41.9029C239.248 32.4436 238.421 24.646 237.815 19.2157C237.512 16.5008 237.264 14.3777 237.092 12.9349C237.006 12.2137 236.939 11.6624 236.894 11.2921C236.871 11.107 236.854 10.9667 236.842 10.8735C236.837 10.827 236.832 10.7917 236.829 10.7687C236.828 10.7576 236.827 10.7492 236.827 10.7437C236.826 10.7409 236.826 10.7383 236.826 10.737L236.825 10.7354C236.634 9.21485 237.669 7.81122 239.177 7.54546L239.676 10.3767C239.178 7.54599 239.178 7.5456 239.179 7.54546C239.18 7.54537 239.181 7.54564 239.182 7.54546C239.184 7.54509 239.187 7.54445 239.191 7.5438C239.198 7.5425 239.209 7.54033 239.222 7.53797C239.25 7.5332 239.29 7.52611 239.342 7.51717C239.447 7.49925 239.601 7.47315 239.801 7.43977C240.203 7.37298 240.792 7.27702 241.553 7.15848C243.075 6.92134 245.282 6.59376 248.041 6.23056C253.558 5.5043 261.291 4.6336 270.161 4.05263Z" fill="#13151A"/>
<path d="M310.232 30.0645C311.817 30.0072 313.149 31.2463 313.206 32.8325C313.264 34.4187 312.025 35.7509 310.44 35.8085C307.982 35.8977 304.511 35.8919 300.524 35.8967C296.508 35.9015 291.904 35.9165 287.086 36.0448C277.404 36.3028 267.056 37.0149 259.03 38.9376C257.487 39.3071 255.936 38.355 255.567 36.8113C255.198 35.2676 256.149 33.7164 257.692 33.3468C266.336 31.276 277.19 30.5588 286.934 30.2992C291.83 30.1688 296.496 30.1525 300.518 30.1477C304.569 30.1429 307.904 30.149 310.232 30.0645Z" fill="#13151A"/>
<path d="M311.803 50.5133C312.265 50.5155 312.625 50.5186 312.87 50.5208C312.992 50.5218 313.086 50.5226 313.149 50.5233C313.181 50.5236 313.205 50.5239 313.222 50.5241H313.247C313.247 50.5241 313.248 50.5241 313.213 53.3977C313.179 56.2385 313.179 56.2719 313.179 56.2722H313.158C313.143 56.2721 313.12 56.2717 313.09 56.2714C313.03 56.2708 312.94 56.2699 312.821 56.2689C312.583 56.2669 312.231 56.2636 311.776 56.2614C310.866 56.2569 309.546 56.2545 307.911 56.2606C304.641 56.2728 300.115 56.3209 295.095 56.4661C284.988 56.7585 273.101 57.4384 265.357 58.9445L265.211 58.9686C263.707 59.183 262.282 58.1811 261.989 56.6717C261.686 55.1135 262.703 53.6041 264.261 53.3012L265.047 53.1539C273.285 51.6536 285.148 51.0034 294.928 50.7205C300.009 50.5735 304.584 50.5248 307.89 50.5124C309.542 50.5062 310.879 50.5087 311.803 50.5133ZM313.247 50.5241C314.834 50.543 316.105 51.8454 316.086 53.4327C316.067 55.0198 314.766 56.291 313.179 56.2722L313.247 50.5241Z" fill="#13151A"/>
<path d="M308.533 85.1314C310.007 85.1308 311.189 85.1411 312.004 85.1513C312.412 85.1565 312.728 85.1616 312.943 85.1655C313.051 85.1674 313.134 85.1693 313.19 85.1705C313.218 85.1711 313.24 85.1718 313.254 85.1721H313.278C313.278 85.1722 313.278 85.1761 313.242 86.7351L313.278 85.1721C314.865 85.2091 316.12 86.5256 316.083 88.1124C316.048 89.6497 314.812 90.877 313.293 90.9186L313.145 90.9195H313.141C313.138 90.9194 313.134 90.9188 313.128 90.9186C313.116 90.9184 313.096 90.9183 313.071 90.9178C313.019 90.9167 312.942 90.9147 312.839 90.9128C312.634 90.9091 312.328 90.9045 311.932 90.8995C311.139 90.8895 309.982 90.8798 308.535 90.8803C305.641 90.8814 301.593 90.9238 296.981 91.0901C287.714 91.4243 276.342 92.2531 267.493 94.1926C265.944 94.5322 264.412 93.5509 264.072 92.0005C263.732 90.4499 264.714 88.9173 266.264 88.5776C275.636 86.5233 287.431 85.6822 296.774 85.3452C301.468 85.176 305.587 85.1324 308.533 85.1314Z" fill="#13151A"/>
<path d="M30.8691 95.143C31.6931 94.6585 32.7047 94.6158 33.5667 95.0289L111.73 132.495C112.727 132.973 113.361 133.981 113.361 135.087C113.361 160.8 103.956 217.843 99.1076 245.535C98.8339 247.099 97.3448 248.144 95.782 247.87C94.2192 247.596 93.1742 246.107 93.4479 244.543C98.2182 217.295 107.183 162.793 107.598 136.888L34.9217 102.053C32.1959 143.713 26.5846 190.979 14.5629 221.983C15.9652 222.457 17.8348 223.097 20.0862 223.892C25.3384 225.748 32.6774 228.441 41.0331 231.798C57.1868 238.287 77.2785 247.307 93.4346 257.593L94.9859 258.593L95.1074 258.677C96.337 259.571 96.6629 261.282 95.8236 262.57C94.9842 263.858 93.2875 264.251 91.9739 263.486L91.8483 263.408L90.3419 262.438C74.6429 252.444 54.9433 243.58 38.8928 237.132C30.6273 233.812 23.3658 231.147 18.173 229.313C15.5772 228.396 13.4994 227.687 12.0732 227.208C11.3604 226.969 10.81 226.787 10.4395 226.665C10.2546 226.605 10.1144 226.559 10.0211 226.529C9.97447 226.514 9.93924 226.502 9.91633 226.495C9.90504 226.491 9.89676 226.488 9.89138 226.487C9.88878 226.486 9.88675 226.485 9.88555 226.485L9.88389 226.484C9.11948 226.238 8.49266 225.684 8.15536 224.955C7.81811 224.226 7.80114 223.389 8.10878 222.647C20.9351 191.719 26.7553 141.458 29.4575 97.4449L29.4741 97.2676C29.5835 96.3845 30.0965 95.5972 30.8691 95.143Z" fill="#13151A"/>
<path d="M42.9849 126.556C43.4037 125.077 44.9072 124.198 46.3887 124.537L46.5318 124.574L47.5158 124.858C57.7391 127.863 69.556 132.987 78.8448 137.367C83.6573 139.636 87.8268 141.722 90.7939 143.242C92.2779 144.003 93.4625 144.622 94.2775 145.052C94.6851 145.267 95.0007 145.435 95.215 145.549C95.322 145.606 95.404 145.65 95.4596 145.68C95.4872 145.695 95.5083 145.706 95.5228 145.714C95.5299 145.718 95.5356 145.721 95.5394 145.723C95.5414 145.724 95.5433 145.725 95.5444 145.726L95.5452 145.727C95.5438 145.73 95.5132 145.787 94.9663 146.801L95.5461 145.727C96.9422 146.481 97.4634 148.225 96.7098 149.621C95.9796 150.975 94.3206 151.506 92.9483 150.852L92.8169 150.786L92.816 150.785C92.8155 150.784 92.8147 150.784 92.8135 150.783C92.8106 150.782 92.8057 150.779 92.7994 150.776C92.7869 150.769 92.7677 150.759 92.742 150.745C92.6904 150.717 92.6121 150.675 92.5091 150.62C92.3031 150.51 91.9965 150.347 91.5983 150.137C90.8013 149.717 89.637 149.109 88.1753 148.36C85.2509 146.862 81.1388 144.803 76.395 142.567C67.168 138.216 55.6801 133.251 45.9063 130.376L44.9663 130.105L44.8249 130.061C43.3855 129.573 42.5661 128.036 42.9849 126.556Z" fill="#13151A"/>
<path d="M41.5733 145.363C42.0774 143.911 43.6295 143.121 45.0885 143.546L45.2299 143.591L48.212 144.63C63.2026 149.869 79.2747 155.78 92.5448 162.842C93.9455 163.587 94.4774 165.328 93.7327 166.729C92.9876 168.13 91.2479 168.663 89.8472 167.917C76.9995 161.08 61.3135 155.299 46.3313 150.062L43.345 149.022L43.207 148.969C41.7981 148.399 41.0691 146.816 41.5733 145.363Z" fill="#13151A"/>
<path d="M39.6852 162.633C40.3039 161.225 41.9147 160.562 43.3353 161.103L43.4717 161.158L46.4937 162.477C53.801 165.643 62.7762 169.389 70.8927 172.818C80.0649 176.693 88.3134 180.233 91.5219 181.983C92.9148 182.743 93.4285 184.489 92.669 185.883C91.9093 187.276 90.164 187.79 88.771 187.03C85.8836 185.454 77.99 182.056 68.6576 178.113C60.5823 174.702 51.5563 170.935 44.2012 167.749L41.1592 166.421L41.0253 166.358C39.6668 165.676 39.0667 164.041 39.6852 162.633Z" fill="#13151A"/>
<path d="M27.7669 208.089C28.1975 206.561 29.7843 205.672 31.3113 206.102L30.5319 208.869C31.2998 206.144 31.3115 206.103 31.3122 206.102L31.3138 206.103C31.3153 206.104 31.3178 206.104 31.3205 206.105C31.3259 206.106 31.3336 206.109 31.3438 206.112C31.3642 206.117 31.3942 206.126 31.4336 206.137C31.5126 206.16 31.6294 206.193 31.7813 206.236C32.085 206.324 32.5302 206.453 33.1006 206.619C34.2415 206.953 35.8841 207.439 37.8944 208.052C41.9131 209.279 47.4122 211.018 53.3288 213.061C59.2405 215.102 65.5991 217.458 71.3253 219.921C76.6493 222.212 81.5854 224.663 85.1119 227.113L85.7982 227.603L85.9146 227.694C87.0928 228.654 87.3227 230.381 86.4129 231.621C85.503 232.86 83.7873 233.158 82.5183 232.321L82.3977 232.237L81.8137 231.82C78.7945 229.725 74.3008 227.459 69.0553 225.202C63.5071 222.815 57.2936 220.51 51.4547 218.494C45.6213 216.48 40.1909 214.764 36.2174 213.551C34.2315 212.944 32.6111 212.465 31.4893 212.137C30.9287 211.973 30.4926 211.847 30.1975 211.762C30.05 211.72 29.9371 211.688 29.8623 211.667C29.8253 211.656 29.7975 211.648 29.7791 211.643C29.7699 211.64 29.7627 211.638 29.7583 211.637C29.7561 211.636 29.7543 211.635 29.7533 211.635H29.7525C28.2255 211.204 27.3365 209.617 27.7669 208.089Z" fill="#13151A"/>
<path d="M123.202 44.7441C123.202 44.7441 131.811 102.605 133.308 150.943C133.308 150.943 181.834 145.186 226.845 148.299C226.845 148.299 222.366 74.6498 211.912 31.8282L123.216 44.7441H123.202Z" fill="#FA712B"/>
<path d="M195.634 56.699C197.153 56.7627 198.371 58.0083 198.384 59.5461C198.398 61.1332 197.124 62.4315 195.537 62.4455L194.56 62.4588C184.387 62.6616 171.966 64.6136 161.873 66.5767C156.687 67.5854 152.157 68.588 148.926 69.3388C147.311 69.714 146.022 70.0259 145.138 70.2434C144.696 70.3521 144.356 70.4379 144.127 70.4956C144.013 70.5244 143.926 70.5459 143.869 70.5605L143.79 70.5813C143.788 70.5817 143.787 70.582 143.786 70.5821H143.785C142.249 70.9778 140.683 70.0527 140.288 68.5157C139.892 66.9785 140.816 65.4114 142.353 65.0154L142.355 65.0146C142.356 65.0143 142.358 65.0143 142.36 65.0137C142.364 65.0126 142.371 65.0108 142.379 65.0088C142.395 65.0046 142.419 64.9983 142.449 64.9904C142.511 64.9746 142.603 64.9514 142.722 64.9214C142.961 64.8612 143.312 64.7731 143.765 64.6617C144.67 64.4388 145.985 64.1211 147.627 63.7396C150.909 62.9769 155.508 61.9581 160.777 60.9334C171.269 58.8927 184.592 56.7924 195.486 56.6965L195.634 56.699Z" fill="white"/>
<path d="M179.182 77.7872C180.701 77.7399 182.007 78.8927 182.132 80.4253C182.262 82.0074 181.084 83.3949 179.503 83.5245C174.227 83.9569 165.696 85.4803 158.364 86.9275C154.724 87.6459 151.422 88.3368 149.03 88.8482C147.834 89.1038 146.866 89.3142 146.198 89.4607C145.864 89.534 145.605 89.5917 145.43 89.6305C145.343 89.6499 145.276 89.6647 145.232 89.6746C145.209 89.6795 145.193 89.683 145.182 89.6854C145.176 89.6866 145.172 89.6873 145.169 89.6879C145.168 89.6882 145.167 89.6886 145.167 89.6888C143.618 90.0353 142.082 89.0608 141.735 87.5117C141.389 85.9626 142.363 84.4262 143.911 84.0796L143.913 84.0788C143.914 84.0786 143.915 84.0782 143.916 84.0779C143.92 84.0772 143.924 84.0767 143.93 84.0754C143.942 84.0728 143.96 84.0689 143.983 84.0638C144.029 84.0535 144.098 84.0378 144.187 84.018C144.366 83.9783 144.63 83.92 144.968 83.8457C145.645 83.6973 146.623 83.4845 147.829 83.2266C150.242 82.7107 153.575 82.0132 157.252 81.2875C164.554 79.8463 173.389 78.2581 179.034 77.7955L179.182 77.7872Z" fill="white"/>
</g>
</g>
<defs>
<clipPath id="clip0_17_703">
<rect width="477" height="369" fill="white"/>
</clipPath>
</defs>
</svg>
