<svg width="52" height="52" viewBox="0 0 48 48" fill="none" xmlns="http://www.w3.org/2000/svg">
<rect width="48" height="48" rx="24" fill="white" fill-opacity="1"/>
<path fill-rule="evenodd" clip-rule="evenodd" d="M29.6873 17.2277C29.9025 17.1368 30.138 17.1054 30.3693 17.1369C30.6006 17.1683 30.8193 17.2614 31.0027 17.4065C31.186 17.5515 31.3272 17.7432 31.4116 17.9616C31.496 18.1799 31.5206 18.417 31.4827 18.6482L29.5079 30.6665C29.3164 31.8258 28.0486 32.4906 26.989 31.9132C26.1026 31.4301 24.7861 30.6857 23.602 29.9091C23.0099 29.5203 21.1962 28.2754 21.4191 27.3896C21.6107 26.6321 24.6581 23.7859 26.3995 22.0937C27.083 21.4289 26.7713 21.0454 25.9642 21.6569C23.9598 23.1752 20.7417 25.4842 19.6777 26.1342C18.7391 26.7073 18.2498 26.8051 17.6647 26.7073C16.5972 26.5291 15.6072 26.253 14.7992 25.9167C13.7073 25.4624 13.7605 23.9563 14.7983 23.5177L29.6873 17.2277Z" fill="#13151a"/>
</svg>
