<svg width="20" height="20" viewBox="0 0 20 20" fill="none" xmlns="http://www.w3.org/2000/svg">
<path d="M9.5498 2.62499C9.90815 2.08334 10.8003 1.70006 11.5586 1.98339C12.3752 2.25843 12.9172 3.17555 12.7422 3.99218L12.3086 6.71679C12.2753 6.96679 12.3417 7.19218 12.4834 7.36718C12.6251 7.52542 12.8337 7.62499 13.0586 7.62499H16.4834C17.1417 7.62499 17.7087 7.89172 18.042 8.35839C18.3587 8.80838 18.4163 9.39173 18.208 9.98339L16.1582 16.2256C15.8997 17.2587 14.7747 18.1006 13.6582 18.1006H10.4082C9.84988 18.1005 9.0663 17.9081 8.70801 17.5498L7.6416 16.7256C7.23327 16.4172 6.99219 15.9249 6.99219 15.4082V6.94237C6.99219 6.60905 7.09206 6.28378 7.27539 6.00878L9.5498 2.62499ZM4.3418 5.3164C5.63328 5.31641 6.15808 5.81679 6.1582 7.04979V15.4336C6.15819 16.6669 5.63342 17.167 4.3418 17.167H3.4834C2.19175 17.167 1.667 16.6669 1.66699 15.4336V7.04979C1.66711 5.81678 2.19189 5.3164 3.4834 5.3164H4.3418Z" fill="#13151A"/>
</svg>
