<svg width="20" height="20" viewBox="0 0 20 20" fill="none" xmlns="http://www.w3.org/2000/svg">
<g clip-path="url(#clip0_2002_233)">
<path d="M16.667 0C17.5509 8.63023e-05 18.3984 0.351518 19.0234 0.976562C19.6485 1.60161 19.9999 2.44907 20 3.33301V15.833C20 16.9381 19.5607 17.9979 18.7793 18.7793C17.9979 19.5607 16.9381 20 15.833 20C14.7281 19.9999 13.668 19.5606 12.8867 18.7793C12.1055 17.9979 11.667 16.9379 11.667 15.833C11.6669 15.3913 11.491 14.9677 11.1787 14.6553C10.8661 14.3427 10.442 14.167 10 14.167C9.55797 14.167 9.13385 14.3427 8.82129 14.6553C8.50901 14.9677 8.33309 15.3913 8.33301 15.833C8.33301 16.9379 7.89448 17.9979 7.11328 18.7793C6.33196 19.5606 5.27194 19.9999 4.16699 20C3.06192 20 2.0021 19.5607 1.2207 18.7793C0.439302 17.9979 0 16.9381 0 15.833V3.33301C8.61761e-05 2.44907 0.351518 1.60161 0.976562 0.976562C1.60161 0.351518 2.44907 8.61761e-05 3.33301 0C4.21706 0 5.06531 0.351441 5.69043 0.976562C6.31537 1.60159 6.66691 2.44915 6.66699 3.33301C6.66699 3.55402 6.57913 3.76657 6.42285 3.92285C6.26657 4.07913 6.05402 4.16699 5.83301 4.16699C5.61219 4.16691 5.40033 4.07895 5.24414 3.92285C5.08786 3.76657 5 3.55402 5 3.33301C4.99991 2.89117 4.8241 2.46774 4.51172 2.15527C4.19916 1.84271 3.77504 1.66699 3.33301 1.66699C2.8911 1.66708 2.46776 1.84279 2.15527 2.15527C1.84279 2.46776 1.66708 2.8911 1.66699 3.33301V12.5215C2.38393 11.9701 3.26256 11.6701 4.16699 11.667C4.84916 11.6673 5.5209 11.8347 6.12305 12.1553C6.72533 12.476 7.23994 12.9399 7.62109 13.5059C7.9301 13.1877 8.29954 12.9345 8.70801 12.7617C9.11667 12.5889 9.55631 12.5 10 12.5C10.4437 12.5 10.8833 12.5889 11.292 12.7617C11.7005 12.9345 12.0699 13.1877 12.3789 13.5059C12.7601 12.9399 13.2747 12.476 13.877 12.1553C14.4791 11.8347 15.1508 11.6673 15.833 11.667C16.7374 11.6701 17.6161 11.9701 18.333 12.5215V3.33301C18.3329 2.8911 18.1572 2.46776 17.8447 2.15527C17.5322 1.84279 17.1089 1.66708 16.667 1.66699C16.225 1.66699 15.8008 1.84271 15.4883 2.15527C15.1759 2.46774 15.0001 2.89117 15 3.33301C15 3.55402 14.9121 3.76657 14.7559 3.92285C14.5997 4.07895 14.3878 4.16691 14.167 4.16699C13.946 4.16699 13.7334 4.07913 13.5771 3.92285C13.4209 3.76657 13.333 3.55402 13.333 3.33301C13.3331 2.44915 13.6846 1.60159 14.3096 0.976562C14.9347 0.351441 15.7829 0 16.667 0Z" fill="white"/>
</g>
<defs>
<clipPath id="clip0_2002_233">
<rect width="20" height="20" fill="white"/>
</clipPath>
</defs>
</svg>
