<svg width="20" height="20" viewBox="0 0 20 20" fill="none" xmlns="http://www.w3.org/2000/svg">
<path d="M18.333 10.833V15.833C18.333 16.3801 18.2259 16.9223 18.0166 17.4277C17.8073 17.9331 17.5001 18.3924 17.1133 18.7793C16.7265 19.1661 16.2671 19.4732 15.7617 19.6826C15.2563 19.892 14.7141 20 14.167 20H5.83301C4.72809 19.9999 3.66802 19.5606 2.88672 18.7793C2.5 18.3925 2.1937 17.9331 1.98438 17.4277C1.77498 16.9222 1.66699 16.3802 1.66699 15.833V10.833H18.333ZM9.16699 14.167C8.94598 14.167 8.73343 14.2549 8.57715 14.4111C8.4211 14.5674 8.33301 14.7792 8.33301 15C8.33301 15.2208 8.4211 15.4326 8.57715 15.5889C8.73343 15.7451 8.94598 15.833 9.16699 15.833H10.833C11.054 15.833 11.2666 15.7451 11.4229 15.5889C11.579 15.4326 11.667 15.2209 11.667 15C11.667 14.7791 11.579 14.5674 11.4229 14.4111C11.2666 14.2549 11.054 14.167 10.833 14.167H9.16699ZM14.167 0C15.272 6.46513e-05 16.3319 0.439359 17.1133 1.2207C17.8945 2.00208 18.333 3.06206 18.333 4.16699V9.16699H1.66699V4.16699C1.66699 3.0621 2.10555 2.00207 2.88672 1.2207C3.66802 0.439397 4.72809 0.000107704 5.83301 0H14.167ZM9.16699 4.16699C8.94598 4.16699 8.73343 4.25485 8.57715 4.41113C8.4211 4.56738 8.33301 4.77916 8.33301 5C8.33301 5.22084 8.4211 5.43262 8.57715 5.58887C8.73343 5.74515 8.94598 5.83301 9.16699 5.83301H10.833C11.054 5.83301 11.2666 5.74515 11.4229 5.58887C11.579 5.43261 11.667 5.22088 11.667 5C11.667 4.77912 11.579 4.56739 11.4229 4.41113C11.2666 4.25485 11.054 4.16699 10.833 4.16699H9.16699Z" fill="white"/>
</svg>
